<svg id="Layer_1" data-name="Layer 1" xmlns="http://www.w3.org/2000/svg" viewBox="0 0 1920 1080"><defs><style>.cls-1{fill:#ff2c2c;}.cls-1,.cls-2,.cls-3,.cls-4,.cls-5{fill-rule:evenodd;}.cls-2{fill:#4b2cff;}.cls-3{fill:#0037c1;}.cls-4{fill:#ff1a1a;}.cls-5{fill:#ff0b23;}</style></defs><title>a</title><path class="cls-1" d="M955.31,1080H835.75l17.62-105.1C871.86,897.69,878.9,816,879.8,721c-31.12-14.19-44.14-43-64.18-66.59L759,619c-9-6.65-27.83-26.3-8.8-34.14,19.25,7,55.77,47,76.76,39.34l1.26-3.12c-15.07-29-68.93-53.51-73-86.16l6.29-6.25h8.81c28.43,15.65,47.31,54.22,75.51,67.44l6.29-1,1.26-6.25c-12.4-30.45-43.31-62-46.56-93.44l8.81-8.33,6.29,1c23.93,10.2,49.36,74.83,62.92,97.81l3.78-2.08,3.77-6.24C900.2,548.48,858,512.85,876,485h7.55c32.83,9.4,32.92,110.22,75.51,135.07,15.71-7.83,6.71-30.86,12.59-46.62,3.71-10,10.87-16.49,18.87-22.89l8.81,1,7.55,5.2c-2.51,12.48-5,25.81-7.55,38.3-4.51,23,6.73,54.26-1.25,76-7.52,20.4-30.87,31.31-35.24,53.07l5,157.12Z"/><path class="cls-2" d="M636.75,597c29.6.48,21,63.75,32.33,81.82l1.32.48,5.25-1.08L692,608.48c4.36-2.41,4.75-3.41,12.45-4.3l6.39,4.37c.91,22.52-16.64,65.12-7.16,80.68l2.91.67c19.47-9.55,19.33-39.67,31.84-54.77l5.32-.53c6.62,5.17,9.8,15,6.14,25.91l-20.14,39.54c-7.09,25,2.17,54.18-5,74.92-8.71,25.08,9.74,70.17,16.36,97.81,15.55,64.93,9.14,136.45,20.13,207.07H663.06c15.44-48.27,8-146.26-1.26-196.66-4.67-25.53,5.93-64.05-8.8-82.21-6.1-7.51-20.16-8.19-29-13.53-21.08-12.8-34.68-32.91-55.37-45.78-9.94-6.18-34.63-17.68-32.72-29.14,2.28-3.9,3.74-3.86,7.55-6.24,24.38,2.92,42.23,16.44,56.63,28.1,5.68-.23,6.78-.74,10.07-2.09,13.9-38.81-42.88-84.38-19.17-114.73l5.51-.62c19.54,15.28,16.48,60.54,42.4,68.54l4-2.24v-.89c-8-22.24-15.18-59.29-8.68-83.74Z"/><path class="cls-2" d="M1633,668.83c25.32,13-7.51,61-5,80.53l.95.95,5,1.34,42.14-50c4.72-.11,5.47-.77,12.46,1.78l3.75,6.28c-8.28,18.77-40.54,46.11-38.62,62.84l2.24,1.78c20.61.46,32.61-24.19,49.46-31.21L1710,745c3.62,7,2.43,16.38-5.13,23.76l-33.25,23.74c-16.18,17.42-19.93,45.16-34.47,59-17.59,16.79-19.83,61.44-25.24,86.82-12.71,59.61-47,115.29-65.93,177.62l-84.6-41.66c32.72-32.87,65.7-116,78-161.12,6.23-22.83,30.86-49.78,25.47-70.86-2.24-8.73-14.08-15.25-19.51-23.33-13-19.41-16.65-41.6-29.3-60.89-6.08-9.27-22.74-29.14-16.48-37.68,3.54-2.22,4.77-1.57,9-1.9,19.85,12.74,29.79,31.35,37.51,47,5,2.23,6.14,2.28,9.51,2.58,27.59-25.79-3-87.1,29.63-101.82l5,1.83c10.7,20.78-10.14,56.43,9,74l4.33-.14.36-.73c2-21.57,10.77-54.85,26.19-72Z"/><path class="cls-3" d="M1072.35,1080c.15-45.22-11.16-91.9-2.52-137.35,5.69-29.94,9.35-74.79,2.52-105.1-8.77-38.84-45.48-100-26.43-144.64l8.81,2.08c1.27-10.94,2.91-30.79,12.58-35.38,4-.9,4-.31,7.55,1l2.52,11.45h1.26c.41-9.54,3.69-23.88,10.07-29.14L1100,645c6.72,26.6-2.28,55.82,2.52,81.17h2.52c-.88-23.9-2.15-65.34,15.1-74.92l3.77-1,3.78,3.12c6.21,34.85-1.73,101.47,31.46,114.46h11.33c16.81-10.09,23.31-36.28,47.82-38.5l3.77,1,1.26,7.28c-10.62,18.26-16.45,37-28.94,54.11-15.93,21.82-40.16,27.25-51.6,58.27-7.63,20.7-4.61,51.23,0,74.93l3.78,63.47,20.13,91.57Z"/><path class="cls-4" d="M553.85,1080H474.57l-2.52-172.73-5-55.15c-7.57-18.39-30.57-20.69-42.79-34.34-9.82-11-26.45-45.46-17.62-62.44h5c12.89,9.11,14.58,19.94,23.92,32.26h1.25c-5.16-22.16-16.82-67.32-2.51-88.45,5.8-1.12,6.78-1.27,10.06,2.08,10.09,14-.56,43.8,12.59,55.15-1.38-21.75-6.41-44.3-1.26-64.51l6.29-3.12,7.55,1L479.6,754.3l2.52-1c-.32-12-1.37-27.67,2.52-36.42,6.89-2.17,11.15-3.19,15.1,2.08,4.25,11.1.43,30.26,5,41.63l3.78-2.09,1.26-2.08c-.45-8.14-3.18-8.9-5-15.6l2.52-2.09,13.84-2.08,2.52,3.12c21.91,27.15-7,88.56-1.26,116.55C536.36,924.36,553.32,1000.83,553.85,1080Z"/><path class="cls-5" d="M1278.74,1080c-.43-55.91,5.45-100.34,20.13-144.64,5.65-17,19.38-50.24,7.55-69.72-13-21.45-34.72-35.7-59.15-47.86-10.06-5-24.09-6.32-31.46-13.53l2.52-3.12,2.52-1c26.62.17,57.57,21.41,79.28,9.36,23.43-13,10.13-56.17,31.46-70.76,3.79,1.34,2.83.66,5,3.13,8.13,12.47-2.08,37.86,1.25,54.11l3.78-2.09c4.83-13.89,17.52-41.2,37.75-42.66.42.35.84-.14,1.26.21.07,18.12-9.58,29.68-15.1,43.49,7.91-5,12.16-12.2,21.4-16.44l3.77,2.08,1.26,3.12c-9.23,17-18.46,34.83-27.69,51.83,8.47-2.5,16.51-6,22.66.2-7.69,12.8-26.93,18.88-31.47,34.14l1.26,79.08c-7.72,40.23-8.51,88.53-3.77,131.11Z"/></svg>